<?xml version="1.0" encoding="UTF-8"?>
<svg width="200px" height="200px" viewBox="0 0 200 200" version="1.1"
    xmlns="http://www.w3.org/2000/svg">
    <g stroke="none" stroke-width="1" fill="none" fill-rule="evenodd">
        <rect fill="#F3F4F6" x="0" y="0" width="200" height="200" rx="8"></rect>
        <g transform="translate(50, 50)" fill="#9CA3AF">
            <path d="M80,0 C88.8366,0 96,7.16344 96,16 L96,84 C96,92.8366 88.8366,100 80,100 L16,100 C7.16344,100 0,92.8366 0,84 L0,16 C0,7.16344 7.16344,0 16,0 L80,0 Z M80,8 L16,8 C11.5817,8 8,11.5817 8,16 L8,84 C8,88.4183 11.5817,92 16,92 L80,92 C84.4183,92 88,88.4183 88,84 L88,16 C88,11.5817 84.4183,8 80,8 Z M48,28 C50.2091,28 52,29.7909 52,32 L52,48 L68,48 C70.2091,48 72,49.7909 72,52 C72,54.2091 70.2091,56 68,56 L52,56 L52,72 C52,74.2091 50.2091,76 48,76 C45.7909,76 44,74.2091 44,72 L44,56 L28,56 C25.7909,56 24,54.2091 24,52 C24,49.7909 25.7909,48 28,48 L44,48 L44,32 C44,29.7909 45.7909,28 48,28 Z"></path>
        </g>
    </g>
</svg>