<?xml version="1.0" encoding="utf-8"?>
<svg version="1.1"
    xmlns="http://www.w3.org/2000/svg"
    xmlns:xlink="http://www.w3.org/1999/xlink" viewBox="0 0 2500 2500" width="2500" height="2500">
    <defs>
        <linearGradient id="logoGradient" x1="0%" y1="0%" x2="100%" y2="100%">
            <stop offset="0%" style="stop-color:#f97316;stop-opacity:1" />
            <stop offset="100%" style="stop-color:#a855f7;stop-opacity:1" />
        </linearGradient>
    </defs>
    <g>
        <path fill="url(#logoGradient)" d="M2231.1,1509.2l-502-569c-38-43.6-94-71.2-156.5-71.2c-110.9,0-201.4,87-207.2,196.4c-0.4,7,2,13.8,6.6,19.1l92.8,107.3
		c12.8,14.8,36.6,11.7,44.9-5.9c6.1-12.9,16.4-24,30.1-30.9c17.4-8.8,36.8-9.3,53.7-3c1.2,0.5,2.4,1,3.6,1.7
		c2.7,1.5,7.9,4.7,13.2,9.6c1.1,1,4.2,4.3,5.2,5.4c13.1,15.3,83.4,111.9,224.7,253.2c108.5,108.5,279.4,129.4,369.7,132.4
		C2233.7,1555.1,2246.8,1527.1,2231.1,1509.2z"/>
        <path fill="url(#logoGradient)" d="M1628.4,1309.9c-7.9-9.1-22.7-5-24.9,6.8c-3.7,19.6-16.2,37.3-35.3,47.1c-17.7,9-37.4,9.4-54.6,2.7c-0.5-0.2-1-0.4-1.5-0.7
		c-2.2-1.1-8.9-4.9-15.7-11.5c-0.3-0.3-0.6-0.6-0.9-1c-10.8-12.4-225.6-259.9-374.7-409.1c-126.7-126.7-265.7-59.8-309.6-33
		c-7.6,4.6-9.1,15-3.2,21.7l570.8,645.6c38,43.6,94,71.2,156.5,71.2c112.8,0,204.6-90,207.5-202.1c0.1-3.5-1.2-7-3.5-9.6
		L1628.4,1309.9z"/>
        <path fill="url(#logoGradient)" d="M749,1007.9c-9.2-10.2-25.3-13.6-34.4-3.3l-446.8,506.7c-12.7,14.4-3.3,37.1,15.8,38.3c82.3,5.2,249.7,7.9,378.6-133.6
		c127.3-139.8,191-208.8,216.8-236.6c8.1-8.8,8.2-22.3,0.2-31.1L749,1007.9z"/>
    </g>
</svg>
